<svg width="310" height="160" viewBox="0 0 310 160" fill="none" xmlns="http://www.w3.org/2000/svg">
<path d="M184.289 35.7581L154.731 7.72021L126.525 20.7257L133.281 59.5733L160.305 71.5654L190.37 72.7478V66.3295L184.289 35.7581Z" fill="#1F1E21"/>
<path d="M45.7717 137.327V120.606C45.7717 119.257 46.1763 118.178 46.9854 117.234C47.7945 116.291 48.8733 115.886 50.2218 115.886C51.5703 115.886 52.6491 116.291 53.4582 117.234C54.2673 118.178 54.6718 119.257 54.6718 120.606V134.9C54.6718 136.518 55.0764 137.866 56.0203 138.81C56.8294 139.754 58.0431 140.294 59.6613 140.294C61.1446 140.294 62.3582 139.754 63.3022 138.81C64.2461 137.866 64.6507 136.518 64.6507 134.9V120.606C64.6507 119.257 65.0552 118.178 65.8643 117.234C66.6734 116.291 67.7522 115.886 69.1007 115.886C70.4492 115.886 71.528 116.291 72.3371 117.234C73.1462 118.178 73.5508 119.257 73.5508 120.606V142.721C73.5508 144.07 73.1462 145.148 72.3371 145.957C71.528 146.901 70.4492 147.306 69.1007 147.306C68.0219 147.306 67.078 147.036 66.134 146.362C65.4598 145.823 64.9204 145.148 64.6507 144.339C63.1673 146.632 60.6052 147.845 56.9643 147.845C53.7279 147.845 51.0309 147.036 49.143 145.283C46.8505 143.53 45.7717 140.833 45.7717 137.327Z" fill="#1F1E21"/>
<path d="M77.7311 107.795C77.7311 106.312 78.2705 105.098 79.3493 104.019C80.4281 102.94 81.6417 102.401 83.1251 102.401C84.6084 102.401 85.8221 102.94 86.9009 103.884C87.9797 104.963 88.5191 106.177 88.5191 107.66C88.5191 109.143 87.9797 110.492 86.9009 111.571C85.8221 112.65 84.6084 113.189 83.1251 113.189C81.6417 113.189 80.4281 112.65 79.3493 111.571C78.2705 110.627 77.7311 109.278 77.7311 107.795ZM79.8887 145.957C79.0796 145.014 78.675 143.935 78.675 142.586V120.471C78.675 119.122 79.0796 118.044 79.8887 117.234C80.6978 116.291 81.7766 115.886 83.1251 115.886C84.4736 115.886 85.5524 116.291 86.3615 117.234C87.1706 118.178 87.5751 119.257 87.5751 120.606V142.721C87.5751 144.07 87.1706 145.148 86.3615 146.092C85.5524 147.036 84.4736 147.441 83.1251 147.441C81.7766 147.306 80.6978 146.901 79.8887 145.957Z" fill="#1F1E21"/>
<path d="M91.6206 143.8C91.6206 143.395 91.7555 142.856 91.8903 142.451C92.0252 142.047 92.4297 141.373 92.9691 140.563L104.431 124.651H96.61C95.1267 124.651 93.9131 124.382 93.104 123.707C92.2949 123.033 91.8903 121.954 91.8903 120.471C91.8903 118.988 92.2949 118.044 93.104 117.369C93.9131 116.695 95.1267 116.425 96.61 116.425H113.871C115.354 116.425 116.568 116.83 117.242 117.504C117.781 118.044 118.051 118.718 118.051 119.527C118.051 120.336 117.647 121.145 116.837 122.224L104.566 138.81H114.006C115.489 138.81 116.703 139.08 117.512 139.754C118.321 140.429 118.725 141.507 118.725 142.856C118.725 144.339 118.321 145.283 117.512 145.957C116.703 146.632 115.489 147.036 114.006 147.036H95.9358C95.1267 147.036 94.4525 147.036 94.1828 146.901C93.9131 146.767 93.5085 146.632 92.9691 146.362C92.4297 146.092 92.16 145.823 91.8903 145.418C91.6206 145.014 91.6206 144.339 91.6206 143.8Z" fill="#1F1E21"/>
<path d="M121.288 120.066C121.288 118.718 121.692 117.774 122.636 116.965C123.445 116.291 124.524 115.886 125.738 115.886C127.895 115.886 129.513 116.965 130.323 119.257L135.582 133.012L140.571 120.741C141.245 119.122 141.785 118.044 142.459 117.234C143.268 116.291 144.347 115.751 145.426 115.751C146.774 115.751 147.853 116.156 148.797 116.965C149.606 117.774 150.011 118.853 150.011 120.336C150.011 120.875 149.876 121.415 149.741 122.089C149.471 122.763 149.336 123.438 148.932 124.247L135.717 155.397C135.042 156.88 134.503 157.959 134.098 158.498C133.289 159.308 132.21 159.712 130.862 159.712C129.379 159.712 128.3 159.173 127.491 158.229C126.816 157.42 126.412 156.611 126.412 155.667C126.412 154.588 126.951 152.97 127.895 150.677L130.862 143.935L123.176 125.595C122.636 124.381 122.232 123.168 121.827 122.224C121.557 121.28 121.288 120.471 121.288 120.066Z" fill="#1F1E21"/>
<path d="M155.27 109.953C155.27 108.739 155.674 107.66 156.618 106.716C157.427 105.772 158.641 105.368 159.989 105.368C161.473 105.368 162.552 105.772 163.226 106.446C164.035 107.256 164.439 108.2 164.709 109.548L169.429 131.663L176.306 110.087C176.846 108.334 177.52 107.121 178.329 106.312C179.138 105.637 180.217 105.233 181.431 105.233C182.644 105.233 183.723 105.637 184.532 106.312C185.341 106.986 186.015 108.334 186.555 110.087L193.297 131.663L198.152 109.548C198.422 108.2 198.961 107.256 199.635 106.581C200.444 105.772 201.523 105.368 203.006 105.368C204.355 105.368 205.569 105.772 206.378 106.716C207.187 107.66 207.591 108.739 207.591 109.953C207.591 110.627 207.457 111.436 207.187 112.515C206.917 113.594 206.782 114.268 206.647 114.672L200.714 140.294C200.175 142.317 199.77 143.665 199.366 144.474C198.422 146.362 196.669 147.306 194.106 147.306C190.87 147.306 188.578 145.553 187.499 142.182L181.565 123.303L175.497 142.182C174.958 143.935 174.149 145.148 173.07 146.092C171.991 146.901 170.643 147.441 168.889 147.441C166.867 147.441 165.249 146.901 164.305 145.688C163.63 144.744 162.956 142.991 162.282 140.429L156.079 114.942C155.944 114.268 155.674 113.459 155.539 112.515C155.405 111.436 155.27 110.627 155.27 109.953Z" fill="#1F1E21"/>
<path d="M207.726 131.529C207.726 126.944 209.075 123.033 211.907 119.931C214.738 116.83 218.379 115.212 222.829 115.212C227.28 115.212 230.92 116.695 233.752 119.797C236.584 122.898 237.933 126.809 237.933 131.394C237.933 135.979 236.584 139.889 233.752 142.991C230.92 146.092 227.28 147.71 222.829 147.71C218.379 147.71 214.738 146.092 211.907 142.991C209.21 140.024 207.726 136.248 207.726 131.529ZM216.626 131.529C216.626 133.686 217.166 135.574 218.245 137.057C219.323 138.541 220.807 139.215 222.695 139.215C224.583 139.215 226.066 138.541 227.145 137.057C228.223 135.574 228.763 133.686 228.763 131.529C228.763 129.371 228.223 127.618 227.145 126.269C226.066 124.786 224.448 123.977 222.56 123.977C220.672 123.977 219.189 124.651 218.11 126.135C217.166 127.483 216.626 129.371 216.626 131.529Z" fill="#1F1E21"/>
<path d="M242.248 142.586V120.471C242.248 119.122 242.652 118.044 243.461 117.234C244.271 116.291 245.349 115.886 246.698 115.886C247.777 115.886 248.721 116.156 249.665 116.83C250.339 117.369 250.878 118.044 251.148 118.718C252.092 117.639 252.901 116.83 253.845 116.291C254.924 115.616 256.137 115.212 257.351 115.212C258.565 115.212 259.643 115.616 260.587 116.56C261.531 117.504 261.936 118.583 261.936 119.931C261.936 121.415 261.396 122.494 260.452 123.168C259.778 123.572 258.43 124.112 256.407 124.786C254.384 125.325 253.036 126.135 252.227 126.944C251.552 127.888 251.148 129.371 251.148 131.529V142.586C251.148 143.935 250.743 145.014 249.934 145.957C249.125 146.901 248.046 147.306 246.698 147.306C245.349 147.306 244.271 146.901 243.461 145.957C242.652 145.148 242.248 143.935 242.248 142.586Z" fill="#1F1E21"/>
<path d="M265.846 142.586V107.121C265.846 105.772 266.251 104.693 267.06 103.749C267.869 102.806 268.948 102.401 270.296 102.401C271.645 102.401 272.724 102.806 273.533 103.749C274.342 104.693 274.747 105.772 274.747 107.121V142.586C274.747 143.935 274.342 145.014 273.533 145.957C272.724 146.901 271.645 147.306 270.296 147.306C268.948 147.306 267.869 146.901 267.06 145.957C266.251 145.148 265.846 143.935 265.846 142.586Z" fill="#1F1E21"/>
<path d="M279.601 131.529C279.601 126.944 280.95 123.168 283.647 119.931C286.344 116.83 289.58 115.212 293.491 115.212C295.244 115.212 296.727 115.481 297.941 116.021C298.885 116.425 299.829 116.965 300.773 117.774V107.121C300.773 105.772 301.177 104.693 301.986 103.749C302.795 102.806 303.874 102.401 305.223 102.401C306.571 102.401 307.65 102.806 308.459 103.749C309.268 104.693 309.673 105.772 309.673 107.121V142.586C309.673 143.935 309.268 145.014 308.459 145.957C307.65 146.901 306.571 147.306 305.223 147.306C304.279 147.306 303.47 147.036 302.661 146.497C301.851 145.957 301.312 145.283 301.042 144.474C299.154 146.767 296.592 147.98 293.356 147.98C289.445 147.98 286.209 146.362 283.512 143.26C280.95 139.889 279.601 136.113 279.601 131.529ZM288.501 131.529C288.501 133.686 289.041 135.574 290.119 137.057C291.198 138.541 292.682 139.215 294.57 139.215C296.457 139.215 297.941 138.541 299.02 137.057C300.098 135.574 300.638 133.686 300.638 131.529C300.638 129.371 300.098 127.618 299.154 126.269C298.076 124.786 296.457 123.977 294.57 123.977C292.682 123.977 291.198 124.651 290.119 126.135C289.041 127.483 288.501 129.371 288.501 131.529Z" fill="#1F1E21"/>
<path d="M0.327393 126.944C0.327393 120.471 2.21529 115.212 5.85623 111.301C9.49717 107.39 14.3518 105.368 20.42 105.368C26.4882 105.368 31.3428 107.256 34.9838 111.166C38.6247 115.077 40.5126 120.336 40.5126 126.809C40.5126 132.068 39.299 136.518 36.8717 140.159L39.1641 142.182C40.2429 143.126 41.052 143.935 41.4566 144.609C41.8611 145.283 42.1308 145.957 42.1308 146.632C42.1308 147.711 41.7263 148.789 41.052 149.464C40.3778 150.273 39.4338 150.677 38.355 150.677C37.5459 150.677 36.8717 150.542 36.1974 150.138C35.5232 149.733 34.5792 149.059 33.3656 147.98L30.9383 145.823C27.9716 147.441 24.6003 148.385 20.6897 148.385C14.6215 148.385 9.76688 146.362 6.12593 142.451C2.21529 138.676 0.327393 133.416 0.327393 126.944ZM10.3063 126.944C10.3063 130.585 11.1154 133.551 12.5987 135.844C14.3518 138.541 16.9139 139.754 20.2852 139.754C21.364 139.754 22.3079 139.62 23.117 139.35C21.9034 138.271 20.9594 137.462 20.6897 136.788C20.2852 136.113 20.1503 135.439 20.1503 134.765C20.1503 133.686 20.5549 132.742 21.2291 131.933C21.9033 131.124 22.8473 130.719 23.9261 130.719C24.6003 130.719 25.2746 130.854 25.9488 131.259C26.6231 131.663 27.567 132.338 28.9155 133.416L29.1852 133.686C29.9943 131.663 30.3989 129.371 30.3989 126.944C30.3989 123.303 29.5898 120.336 28.1064 118.044C26.3534 115.347 23.7912 114.133 20.2852 114.133C16.9139 114.133 14.3518 115.481 12.5987 118.044C11.1154 120.336 10.3063 123.303 10.3063 126.944Z" fill="#1F1E21"/>
<path d="M193.23 38.3979C193.23 17.3614 176.104 0.235474 154.933 0.235474C133.761 0.235474 116.77 17.3614 116.77 38.3979C116.77 59.4345 133.761 76.5604 154.798 76.5604H189.05C190.263 76.5604 191.207 76.1559 192.016 75.3468C192.825 74.5377 193.23 73.4589 193.23 72.2452V38.3979ZM174.216 57.5466C173.407 58.3557 172.328 58.7603 171.249 58.7603C168.957 58.7603 167.069 56.8724 167.069 54.5799V37.8585C166.799 31.3858 161.54 26.3963 155.067 26.3963C148.46 26.3963 143.066 31.7903 143.066 38.3979C143.066 45.0056 148.46 50.3996 155.067 50.3996C157.36 50.3996 159.248 52.2875 159.248 54.5799C159.248 56.8724 157.36 58.7603 155.067 58.7603C143.875 58.7603 134.705 49.5905 134.705 38.3979C134.705 27.2054 143.875 18.0356 155.067 18.0356C166.125 18.0356 175.025 26.666 175.43 37.7237V54.7148C175.43 55.7936 174.89 56.8724 174.216 57.5466ZM184.33 67.7952C183.521 68.6043 182.577 69.0088 181.363 69.0088C180.15 69.0088 179.206 68.6043 178.396 67.7952C177.587 66.9861 177.183 65.9073 177.183 64.6936C177.183 63.48 177.587 62.536 178.396 61.7269C179.206 60.9179 180.15 60.5133 181.363 60.5133C182.577 60.5133 183.521 60.9179 184.33 61.7269C185.139 62.536 185.544 63.48 185.544 64.6936C185.544 65.9073 185.139 66.9861 184.33 67.7952Z" fill="#6AFDEF"/>
<path d="M193.23 38.3979C193.23 17.3614 176.104 0.235474 154.933 0.235474C133.761 0.235474 116.77 17.3614 116.77 38.3979C116.77 59.4345 133.761 76.5604 154.798 76.5604H189.05C190.263 76.5604 191.207 76.1559 192.016 75.3468C192.825 74.5377 193.23 73.4589 193.23 72.2452V38.3979ZM174.216 57.5466C173.407 58.3557 172.328 58.7603 171.249 58.7603C168.957 58.7603 167.069 56.8724 167.069 54.5799V37.8585C166.799 31.3858 161.54 26.3963 155.067 26.3963C148.46 26.3963 143.066 31.7903 143.066 38.3979C143.066 45.0056 148.46 50.3996 155.067 50.3996C157.36 50.3996 159.248 52.2875 159.248 54.5799C159.248 56.8724 157.36 58.7603 155.067 58.7603C143.875 58.7603 134.705 49.5905 134.705 38.3979C134.705 27.2054 143.875 18.0356 155.067 18.0356C166.125 18.0356 175.025 26.666 175.43 37.7237V54.7148C175.43 55.7936 174.89 56.8724 174.216 57.5466ZM184.33 67.7952C183.521 68.6043 182.577 69.0088 181.363 69.0088C180.15 69.0088 179.206 68.6043 178.396 67.7952C177.587 66.9861 177.183 65.9073 177.183 64.6936C177.183 63.48 177.587 62.536 178.396 61.7269C179.206 60.9179 180.15 60.5133 181.363 60.5133C182.577 60.5133 183.521 60.9179 184.33 61.7269C185.139 62.536 185.544 63.48 185.544 64.6936C185.544 65.9073 185.139 66.9861 184.33 67.7952Z" fill="#6AFDEF"/>
</svg>
