<svg width="123" height="122" viewBox="0 0 123 122" fill="none" xmlns="http://www.w3.org/2000/svg">
<g filter="url(#filter0_d)">
<path d="M61.5093 88.2442C59.7135 88.2524 58.0639 87.5117 56.8612 86.32C54.3055 83.7877 54.2862 79.5974 56.8186 77.0417L75.29 58.3997C82.1395 50.8855 81.7879 39.5135 74.5717 32.3633C67.2051 25.0641 55.233 25.1191 47.9339 32.4857C40.6347 39.8523 40.6897 51.8243 48.0563 59.1235C50.6121 61.6559 50.6313 65.8461 48.099 68.4019C45.5666 70.9576 41.3764 70.9769 38.8206 68.4445C26.3425 56.0806 26.249 35.7281 38.6129 23.25C50.9768 10.7719 71.3293 10.6784 83.8074 23.0423C96.1351 35.2572 96.5239 54.7104 84.7599 67.4851L84.611 67.6354L65.9906 86.4277C64.7989 87.6304 63.0059 88.2373 61.5093 88.2442ZM61.4636 110.842C59.6678 110.85 58.1685 110.259 56.8155 108.918C55.4624 107.577 54.8569 106.084 54.8487 104.288C54.8404 102.492 55.5811 100.842 56.9218 99.4893C58.2624 98.1362 59.7562 97.5308 61.552 97.5225C63.3478 97.5143 64.8471 98.106 66.2001 99.4467C67.5531 100.787 68.1586 102.281 68.1669 104.077C68.1751 105.873 67.5834 107.372 66.2427 108.725C64.9021 110.078 63.2594 110.834 61.4636 110.842Z" fill="#6AFDEF"/>
<path d="M84.8665 67.5907L84.8703 67.5867C96.6885 54.7531 96.2984 35.2078 83.913 22.9357C71.376 10.5135 50.9286 10.6075 38.5063 23.1444C26.0841 35.6814 26.1781 56.1288 38.715 68.5511C41.3296 71.1417 45.6148 71.122 48.2055 68.5074C50.7962 65.8928 50.7765 61.6076 48.1619 59.017C40.8541 51.7761 40.7996 39.899 48.0404 32.5913C55.2813 25.2835 67.1584 25.2289 74.4661 32.4698C81.6251 39.5633 81.9738 50.8423 75.1812 58.2964L56.712 76.9361C54.1214 79.5507 54.1411 83.8359 56.7557 86.4266C57.9847 87.6444 59.6718 88.4026 61.51 88.3942C63.0399 88.3871 64.8732 87.7685 66.0972 86.5333L84.7175 67.741L84.8665 67.5907ZM56.7099 109.025C58.0911 110.393 59.6286 111.001 61.4643 110.992C63.3048 110.984 64.9843 110.208 66.3493 108.831C67.7179 107.449 68.3253 105.912 68.3169 104.076C68.3084 102.241 67.6869 100.709 66.3057 99.3401C64.9244 97.9715 63.387 97.3641 61.5513 97.3725C59.7156 97.381 58.1838 98.0025 56.8152 99.3837C55.4502 100.761 54.6902 102.448 54.6987 104.288C54.7071 106.124 55.3286 107.656 56.7099 109.025Z" stroke="#1F1E21" stroke-width="0.3" stroke-linejoin="round"/>
</g>
<defs>
<filter id="filter0_d" x="0.374069" y="0.124634" width="121.834" height="121.835" filterUnits="userSpaceOnUse" color-interpolation-filters="sRGB">
<feFlood flood-opacity="0" result="BackgroundImageFix"/>
<feColorMatrix in="SourceAlpha" type="matrix" values="0 0 0 0 0 0 0 0 0 0 0 0 0 0 0 0 0 0 127 0" result="hardAlpha"/>
<feOffset dy="4"/>
<feGaussianBlur stdDeviation="2"/>
<feComposite in2="hardAlpha" operator="out"/>
<feColorMatrix type="matrix" values="0 0 0 0 0 0 0 0 0 0 0 0 0 0 0 0 0 0 0.25 0"/>
<feBlend mode="normal" in2="BackgroundImageFix" result="effect1_dropShadow"/>
<feBlend mode="normal" in="SourceGraphic" in2="effect1_dropShadow" result="shape"/>
</filter>
</defs>
</svg>
